<svg version="1.1" xmlns="http://www.w3.org/2000/svg" xmlns:xlink="http://www.w3.org/1999/xlink" width="21.82px" height="21.76px" viewBox="0,0,256,255.28125"><g fill="#0d234d" fill-rule="nonzero" stroke="none" stroke-width="1" stroke-linecap="butt" stroke-linejoin="miter" stroke-miterlimit="10" stroke-dasharray="" stroke-dashoffset="0" font-family="none" font-weight="none" font-size="none" text-anchor="none" style="mix-blend-mode: normal"><g transform="translate(0,-0.0074) scale(11.73236,11.73236)"><path d="M21.82,10.91c0,3.74 -1.75,5.49 -3.96,5.49c-1.28,0 -2.39,-0.66 -3.03,-1.67c-1.01,1.01 -2.37,1.65 -3.91,1.65c-3.03,0 -5.47,-2.44 -5.47,-5.47c0,-3.03 2.45,-5.47 5.47,-5.47c3.02,0 5.47,2.44 5.47,5.47v1.78c0,0.9 0.64,1.54 1.46,1.54c0.98,0 1.78,-0.82 1.78,-3.32c0,-4.8 -3.91,-8.7 -8.72,-8.7c-4.81,0 -8.74,3.9 -8.74,8.7c0,4.8 3.91,8.7 8.72,8.7c2.79,0 4.7,-1.38 4.7,-1.38l1.44,1.65c0,0 -2.44,1.88 -6.14,1.88c-6,0 -10.89,-4.88 -10.89,-10.88c0,-6 4.89,-10.88 10.9,-10.88c6.03,0.03 10.92,4.91 10.92,10.91zM10.92,14.22c1.83,0 3.32,-1.49 3.32,-3.32c0,-1.83 -1.49,-3.32 -3.32,-3.32c-1.83,0 -3.32,1.49 -3.32,3.33c0,1.83 1.49,3.31 3.32,3.31z"></path></g></g></svg>