<?xml version="1.0" encoding="utf-8"?>
<!-- Generator: Adobe Illustrator 26.3.1, SVG Export Plug-In . SVG Version: 6.00 Build 0)  -->
<svg version="1.1" id="Слой_1" xmlns="http://www.w3.org/2000/svg" xmlns:xlink="http://www.w3.org/1999/xlink" x="0px" y="0px"
	 viewBox="0 0 21.82 21.76" style="enable-background:new 0 0 21.82 21.76;" xml:space="preserve">
<style type="text/css">
	.st0{fill:#F4DDB3;}
	.st1{fill-rule:evenodd;clip-rule:evenodd;fill:#F4DDB3;}
</style>
<path class="st0" d="M21.82,10.91c0,3.74-1.75,5.49-3.96,5.49c-1.28,0-2.39-0.66-3.03-1.67c-1.01,1.01-2.37,1.65-3.91,1.65
	c-3.03,0-5.47-2.44-5.47-5.47s2.45-5.47,5.47-5.47s5.47,2.44,5.47,5.47v1.78c0,0.9,0.64,1.54,1.46,1.54c0.98,0,1.78-0.82,1.78-3.32
	c0-4.8-3.91-8.7-8.72-8.7s-8.74,3.9-8.74,8.7s3.91,8.7,8.72,8.7c2.79,0,4.7-1.38,4.7-1.38l1.44,1.65c0,0-2.44,1.88-6.14,1.88
	C4.89,21.76,0,16.88,0,10.88S4.89,0,10.9,0C16.93,0.03,21.82,4.91,21.82,10.91z M10.92,14.22c1.83,0,3.32-1.49,3.32-3.32
	c0-1.83-1.49-3.32-3.32-3.32S7.6,9.07,7.6,10.91C7.6,12.74,9.09,14.22,10.92,14.22z"/>
</svg>
