<?xml version="1.0" encoding="utf-8"?>
<!-- Generator: Adobe Illustrator 26.3.1, SVG Export Plug-In . SVG Version: 6.00 Build 0)  -->
<svg version="1.1" id="Слой_1" xmlns="http://www.w3.org/2000/svg" xmlns:xlink="http://www.w3.org/1999/xlink" x="0px" y="0px"
	 viewBox="0 0 20.26 20.33" style="enable-background:new 0 0 20.26 20.33;" xml:space="preserve">
<style type="text/css">
	.st0{fill:#F4DDB3;}
	.st1{fill-rule:evenodd;clip-rule:evenodd;fill:#F4DDB3;}
</style>
<path class="st0" d="M0,20.33l1.43-5.22c-0.88-1.53-1.35-3.26-1.35-5.04C0.09,4.52,4.61,0,10.17,0c2.7,0,5.23,1.05,7.14,2.95
	c1.9,1.9,2.95,4.43,2.95,7.13c0,5.55-4.53,10.07-10.09,10.07c0,0,0,0,0,0h0c-1.69,0-3.35-0.42-4.82-1.23L0,20.33z M5.6,17.1
	l0.31,0.18c1.29,0.76,2.76,1.17,4.27,1.17h0c4.62,0,8.38-3.76,8.38-8.37c0-2.24-0.87-4.34-2.45-5.92c-1.58-1.58-3.69-2.45-5.93-2.46
	c-4.63,0-8.39,3.76-8.39,8.37c0,1.58,0.44,3.12,1.28,4.46l0.2,0.32l-0.85,3.09L5.6,17.1z"/>
<path class="st1" d="M15.26,12.47c-0.06-0.1-0.23-0.17-0.48-0.29c-0.25-0.13-1.49-0.73-1.72-0.82c-0.23-0.08-0.4-0.13-0.57,0.13
	c-0.17,0.25-0.65,0.82-0.8,0.99c-0.15,0.17-0.29,0.19-0.55,0.06c-0.25-0.13-1.06-0.39-2.03-1.25c-0.75-0.67-1.26-1.49-1.4-1.74
	C7.56,9.29,7.69,9.16,7.82,9.03C7.93,8.92,8.07,8.74,8.2,8.59c0.13-0.15,0.17-0.25,0.25-0.42C8.53,8,8.49,7.86,8.43,7.73
	C8.37,7.6,7.86,6.36,7.65,5.86c-0.2-0.49-0.41-0.42-0.57-0.43C6.94,5.42,6.77,5.42,6.6,5.42c-0.17,0-0.44,0.06-0.67,0.31
	C5.7,5.99,5.05,6.6,5.05,7.83c0,1.24,0.9,2.44,1.03,2.6c0.13,0.17,1.78,2.71,4.31,3.8c0.6,0.26,1.07,0.41,1.44,0.53
	c0.6,0.19,1.15,0.16,1.59,0.1c0.48-0.07,1.49-0.61,1.7-1.2C15.32,13.08,15.32,12.58,15.26,12.47z"/>
</svg>
