<?xml version="1.0" encoding="utf-8"?>
<!-- Generator: Adobe Illustrator 26.3.1, SVG Export Plug-In . SVG Version: 6.00 Build 0)  -->
<svg version="1.1" id="Слой_1" xmlns="http://www.w3.org/2000/svg" xmlns:xlink="http://www.w3.org/1999/xlink" x="0px" y="0px"
	 viewBox="0 0 22.09 18.28" style="enable-background:new 0 0 22.09 18.28;" xml:space="preserve">
<style type="text/css">
	.st0{fill:#F4DDB3;}
	.st1{fill-rule:evenodd;clip-rule:evenodd;fill:#F4DDB3;}
</style>
<path class="st1" d="M1.52,7.87c5.93-2.58,9.88-4.28,11.86-5.1C19.03,0.42,20.2,0.01,20.97,0c0.17,0,0.54,0.04,0.79,0.24
	c0.21,0.17,0.26,0.39,0.29,0.55c0.03,0.16,0.06,0.52,0.03,0.8c-0.31,3.21-1.63,11-2.3,14.6c-0.29,1.52-0.85,2.03-1.39,2.08
	c-1.18,0.11-2.08-0.78-3.22-1.53c-1.79-1.17-2.8-1.9-4.54-3.04c-2.01-1.32-0.71-2.05,0.44-3.23c0.3-0.31,5.5-5.04,5.6-5.47
	c0.01-0.05,0.02-0.25-0.09-0.36c-0.12-0.11-0.29-0.07-0.42-0.04c-0.18,0.04-3.04,1.93-8.58,5.66c-0.81,0.56-1.55,0.83-2.21,0.81
	c-0.73-0.02-2.12-0.41-3.16-0.75c-1.27-0.41-2.29-0.63-2.2-1.33C0.05,8.62,0.56,8.25,1.52,7.87z"/>
</svg>
