<svg version="1.1" xmlns="http://www.w3.org/2000/svg" xmlns:xlink="http://www.w3.org/1999/xlink" width="20.26px" height="20.33px" viewBox="0,0,255.10938,256"><g fill="#0d234d" fill-rule="none" stroke="none" stroke-width="1" stroke-linecap="butt" stroke-linejoin="miter" stroke-miterlimit="10" stroke-dasharray="" stroke-dashoffset="0" font-family="none" font-weight="none" font-size="none" text-anchor="none" style="mix-blend-mode: normal"><g transform="translate(-0.00458,0) scale(12.59223,12.59223)"><path d="M0,20.33l1.43,-5.22c-0.88,-1.53 -1.35,-3.26 -1.35,-5.04c0.01,-5.55 4.53,-10.07 10.09,-10.07c2.7,0 5.23,1.05 7.14,2.95c1.9,1.9 2.95,4.43 2.95,7.13c0,5.55 -4.53,10.07 -10.09,10.07v0v0c-1.69,0 -3.35,-0.42 -4.82,-1.23zM5.6,17.1l0.31,0.18c1.29,0.76 2.76,1.17 4.27,1.17v0c4.62,0 8.38,-3.76 8.38,-8.37c0,-2.24 -0.87,-4.34 -2.45,-5.92c-1.58,-1.58 -3.69,-2.45 -5.93,-2.46c-4.63,0 -8.39,3.76 -8.39,8.37c0,1.58 0.44,3.12 1.28,4.46l0.2,0.32l-0.85,3.09z" fill-rule="nonzero"></path><path d="M15.26,12.47c-0.06,-0.1 -0.23,-0.17 -0.48,-0.29c-0.25,-0.13 -1.49,-0.73 -1.72,-0.82c-0.23,-0.08 -0.4,-0.13 -0.57,0.13c-0.17,0.25 -0.65,0.82 -0.8,0.99c-0.15,0.17 -0.29,0.19 -0.55,0.06c-0.25,-0.13 -1.06,-0.39 -2.03,-1.25c-0.75,-0.67 -1.26,-1.49 -1.4,-1.74c-0.15,-0.26 -0.02,-0.39 0.11,-0.52c0.11,-0.11 0.25,-0.29 0.38,-0.44c0.13,-0.15 0.17,-0.25 0.25,-0.42c0.08,-0.17 0.04,-0.31 -0.02,-0.44c-0.06,-0.13 -0.57,-1.37 -0.78,-1.87c-0.2,-0.49 -0.41,-0.42 -0.57,-0.43c-0.14,-0.01 -0.31,-0.01 -0.48,-0.01c-0.17,0 -0.44,0.06 -0.67,0.31c-0.23,0.26 -0.88,0.87 -0.88,2.1c0,1.24 0.9,2.44 1.03,2.6c0.13,0.17 1.78,2.71 4.31,3.8c0.6,0.26 1.07,0.41 1.44,0.53c0.6,0.19 1.15,0.16 1.59,0.1c0.48,-0.07 1.49,-0.61 1.7,-1.2c0.2,-0.58 0.2,-1.08 0.14,-1.19z" fill-rule="evenodd"></path></g></g></svg>