<svg version="1.1" xmlns="http://www.w3.org/2000/svg" xmlns:xlink="http://www.w3.org/1999/xlink" width="22.09px" height="18.28px" viewBox="0,0,256,211.84375"><g fill="#0d234d" fill-rule="evenodd" stroke="none" stroke-width="1" stroke-linecap="butt" stroke-linejoin="miter" stroke-miterlimit="10" stroke-dasharray="" stroke-dashoffset="0" font-family="none" font-weight="none" font-size="none" text-anchor="none" style="mix-blend-mode: normal"><g transform="translate(-0.03995,0.00304) scale(11.58895,11.58895)"><path d="M1.52,7.87c5.93,-2.58 9.88,-4.28 11.86,-5.1c5.65,-2.35 6.82,-2.76 7.59,-2.77c0.17,0 0.54,0.04 0.79,0.24c0.21,0.17 0.26,0.39 0.29,0.55c0.03,0.16 0.06,0.52 0.03,0.8c-0.31,3.21 -1.63,11 -2.3,14.6c-0.29,1.52 -0.85,2.03 -1.39,2.08c-1.18,0.11 -2.08,-0.78 -3.22,-1.53c-1.79,-1.17 -2.8,-1.9 -4.54,-3.04c-2.01,-1.32 -0.71,-2.05 0.44,-3.23c0.3,-0.31 5.5,-5.04 5.6,-5.47c0.01,-0.05 0.02,-0.25 -0.09,-0.36c-0.12,-0.11 -0.29,-0.07 -0.42,-0.04c-0.18,0.04 -3.04,1.93 -8.58,5.66c-0.81,0.56 -1.55,0.83 -2.21,0.81c-0.73,-0.02 -2.12,-0.41 -3.16,-0.75c-1.27,-0.41 -2.29,-0.63 -2.2,-1.33c0.04,-0.37 0.55,-0.74 1.51,-1.12z"></path></g></g></svg>