<svg version="1.1" xmlns="http://www.w3.org/2000/svg" xmlns:xlink="http://www.w3.org/1999/xlink" width="20.67px" height="20.64px" viewBox="0,0,256,255.625"><g fill="#0d234d" fill-rule="evenodd" stroke="none" stroke-width="1" stroke-linecap="butt" stroke-linejoin="miter" stroke-miterlimit="10" stroke-dasharray="" stroke-dashoffset="0" font-family="none" font-weight="none" font-size="none" text-anchor="none" style="mix-blend-mode: normal"><g transform="translate(0,-0.12557) scale(12.3851,12.3851)"><path d="M10.34,0c2.81,0 3.16,0.01 4.26,0.06c1.1,0.05 1.85,0.22 2.51,0.48c0.68,0.26 1.26,0.62 1.83,1.19c0.57,0.57 0.93,1.15 1.19,1.83c0.26,0.66 0.43,1.41 0.48,2.51c0.05,1.1 0.06,1.45 0.06,4.26c0,2.81 -0.01,3.15 -0.06,4.26c-0.05,1.1 -0.22,1.85 -0.48,2.51c-0.26,0.68 -0.62,1.25 -1.19,1.83c-0.57,0.57 -1.15,0.93 -1.83,1.19c-0.66,0.26 -1.41,0.43 -2.51,0.48c-1.1,0.05 -1.45,0.06 -4.26,0.06c-2.81,0 -3.16,-0.01 -4.26,-0.06c-1.1,-0.05 -1.85,-0.22 -2.51,-0.48c-0.68,-0.26 -1.26,-0.62 -1.83,-1.19c-0.57,-0.57 -0.93,-1.15 -1.19,-1.83c-0.26,-0.66 -0.43,-1.41 -0.48,-2.51c-0.06,-1.11 -0.07,-1.47 -0.07,-4.27c0,-2.8 0.01,-3.15 0.06,-4.26c0.05,-1.1 0.22,-1.85 0.48,-2.51c0.26,-0.68 0.62,-1.25 1.19,-1.83c0.57,-0.57 1.15,-0.93 1.83,-1.19c0.66,-0.26 1.41,-0.43 2.51,-0.48c1.11,-0.04 1.46,-0.05 4.27,-0.05zM14.51,1.92c-1.09,-0.05 -1.42,-0.06 -4.18,-0.06c-2.76,0 -3.09,0.01 -4.18,0.06c-1,0.05 -1.54,0.21 -1.91,0.36c-0.48,0.18 -0.83,0.41 -1.19,0.77c-0.36,0.36 -0.58,0.7 -0.77,1.18c-0.14,0.37 -0.31,0.91 -0.36,1.92c-0.05,1.09 -0.06,1.41 -0.06,4.17c0,2.76 0.01,3.08 0.06,4.17c0.05,1.01 0.21,1.55 0.36,1.92c0.19,0.48 0.41,0.83 0.77,1.19c0.36,0.36 0.71,0.58 1.19,0.77c0.36,0.14 0.91,0.31 1.92,0.36c1.09,0.05 1.42,0.06 4.18,0.06c2.76,0 3.09,-0.01 4.18,-0.06c1.01,-0.05 1.56,-0.21 1.92,-0.36c0.48,-0.19 0.83,-0.41 1.19,-0.77c0.36,-0.36 0.59,-0.71 0.77,-1.19c0.14,-0.36 0.31,-0.91 0.36,-1.92c0.05,-1.09 0.06,-1.41 0.06,-4.17c0,-2.76 -0.01,-3.08 -0.06,-4.17c-0.05,-1.01 -0.21,-1.55 -0.36,-1.92c-0.19,-0.48 -0.41,-0.83 -0.77,-1.19c-0.36,-0.36 -0.71,-0.58 -1.19,-0.77c-0.37,-0.14 -0.92,-0.3 -1.93,-0.35zM10.34,13.76c1.9,0 3.45,-1.54 3.45,-3.44c0,-1.9 -1.54,-3.44 -3.45,-3.44c-1.9,0 -3.45,1.54 -3.45,3.44c0,1.9 1.54,3.44 3.45,3.44zM10.34,5.02c2.93,0 5.31,2.37 5.31,5.3c0,2.93 -2.38,5.3 -5.31,5.3c-2.93,0 -5.31,-2.37 -5.31,-5.3c0,-2.93 2.38,-5.3 5.31,-5.3zM17.1,4.81c0,0.68 -0.56,1.24 -1.24,1.24c-0.68,0 -1.24,-0.55 -1.24,-1.24c0,-0.68 0.56,-1.24 1.24,-1.24c0.68,0 1.24,0.56 1.24,1.24z"></path></g></g></svg>