<?xml version="1.0" encoding="utf-8"?>
<!-- Generator: Adobe Illustrator 26.3.1, SVG Export Plug-In . SVG Version: 6.00 Build 0)  -->
<svg version="1.1" id="Слой_1" xmlns="http://www.w3.org/2000/svg" xmlns:xlink="http://www.w3.org/1999/xlink" x="0px" y="0px"
	 viewBox="0 0 20.67 20.64" style="enable-background:new 0 0 20.67 20.64;" xml:space="preserve">
<style type="text/css">
	.st0{fill:#F4DDB3;}
	.st1{fill-rule:evenodd;clip-rule:evenodd;fill:#F4DDB3;}
</style>
<path class="st1" d="M10.34,0c2.81,0,3.16,0.01,4.26,0.06c1.1,0.05,1.85,0.22,2.51,0.48c0.68,0.26,1.26,0.62,1.83,1.19
	c0.57,0.57,0.93,1.15,1.19,1.83c0.26,0.66,0.43,1.41,0.48,2.51c0.05,1.1,0.06,1.45,0.06,4.26s-0.01,3.15-0.06,4.26
	c-0.05,1.1-0.22,1.85-0.48,2.51c-0.26,0.68-0.62,1.25-1.19,1.83c-0.57,0.57-1.15,0.93-1.83,1.19c-0.66,0.26-1.41,0.43-2.51,0.48
	c-1.1,0.05-1.45,0.06-4.26,0.06c-2.81,0-3.16-0.01-4.26-0.06c-1.1-0.05-1.85-0.22-2.51-0.48c-0.68-0.26-1.26-0.62-1.83-1.19
	c-0.57-0.57-0.93-1.15-1.19-1.83c-0.26-0.66-0.43-1.41-0.48-2.51C0.01,13.48,0,13.12,0,10.32s0.01-3.15,0.06-4.26
	c0.05-1.1,0.22-1.85,0.48-2.51c0.26-0.68,0.62-1.25,1.19-1.83c0.57-0.57,1.15-0.93,1.83-1.19c0.66-0.26,1.41-0.43,2.51-0.48
	C7.18,0.01,7.53,0,10.34,0z M14.51,1.92c-1.09-0.05-1.42-0.06-4.18-0.06c-2.76,0-3.09,0.01-4.18,0.06C5.15,1.97,4.61,2.13,4.24,2.28
	C3.76,2.46,3.41,2.69,3.05,3.05C2.69,3.41,2.47,3.75,2.28,4.23C2.14,4.6,1.97,5.14,1.92,6.15c-0.05,1.09-0.06,1.41-0.06,4.17
	s0.01,3.08,0.06,4.17c0.05,1.01,0.21,1.55,0.36,1.92c0.19,0.48,0.41,0.83,0.77,1.19c0.36,0.36,0.71,0.58,1.19,0.77
	c0.36,0.14,0.91,0.31,1.92,0.36c1.09,0.05,1.42,0.06,4.18,0.06s3.09-0.01,4.18-0.06c1.01-0.05,1.56-0.21,1.92-0.36
	c0.48-0.19,0.83-0.41,1.19-0.77c0.36-0.36,0.59-0.71,0.77-1.19c0.14-0.36,0.31-0.91,0.36-1.92c0.05-1.09,0.06-1.41,0.06-4.17
	s-0.01-3.08-0.06-4.17c-0.05-1.01-0.21-1.55-0.36-1.92c-0.19-0.48-0.41-0.83-0.77-1.19c-0.36-0.36-0.71-0.58-1.19-0.77
	C16.07,2.13,15.52,1.97,14.51,1.92z M10.34,13.76c1.9,0,3.45-1.54,3.45-3.44s-1.54-3.44-3.45-3.44c-1.9,0-3.45,1.54-3.45,3.44
	S8.43,13.76,10.34,13.76z M10.34,5.02c2.93,0,5.31,2.37,5.31,5.3s-2.38,5.3-5.31,5.3s-5.31-2.37-5.31-5.3S7.41,5.02,10.34,5.02z
	 M17.1,4.81c0,0.68-0.56,1.24-1.24,1.24c-0.68,0-1.24-0.55-1.24-1.24c0-0.68,0.56-1.24,1.24-1.24C16.54,3.57,17.1,4.13,17.1,4.81z"
	/>
</svg>
